<svg width="100" height="100" viewBox="0 0 100 100" fill="none" xmlns="http://www.w3.org/2000/svg">
    <g clip-path="url(#clip0_4_63)">
        <path d="M96.455 25.7385C96.421 25.4373 96.0484 25.4373 95.8259 25.4373C94.0465 25.4373 85.952 26.7386 79.2847 28.8817C78.8533 29.0205 78.515 29.0879 78.2504 29.0879C77.734 29.0879 77.5336 28.8435 77.1302 28.2903C76.6436 27.6233 75.9772 26.7101 74.188 25.9431C73.4496 25.6266 72.5931 25.466 71.6425 25.466C67.898 25.466 63.1641 27.918 60.3862 31.2963C60.3688 31.3173 60.3591 31.3215 60.358 31.3215C60.1176 31.3215 59.2813 30.3831 57.8363 26.8289C56.7796 24.23 55.694 20.9391 55.0704 18.4445C54.1349 14.7023 51.4162 9.44054 49.6172 5.95902C48.8497 4.47341 48.2433 3.30009 48.0908 2.84246C47.9731 2.48988 47.788 2.31083 47.5402 2.31083C47.3812 2.31083 47.2285 2.38982 47.0734 2.55229C45.3203 4.391 41.7363 19.7342 41.9606 24.442C42.1447 28.3079 45.197 30.9221 46.6637 32.1784C46.8372 32.3269 47.0226 32.4856 47.1669 32.6181C46.3864 32.339 44.752 31.0021 42.5836 29.2285C39.4552 26.6696 34.7275 22.8029 28.3248 18.5767C19.3553 12.6564 13.6095 6.78819 10.1767 3.28245C7.88987 0.947661 6.9351 0 6.26444 0C6.10514 0 5.81497 0.0597719 5.66461 0.460797C4.89469 2.51411 5.86315 23.7426 15.4267 35.2186C20.7664 41.6263 27.5748 44.9161 32.0801 47.0932C34.6761 48.3476 36.7268 49.3384 37.0438 50.2682C37.1157 50.4796 37.0973 50.6824 36.9851 50.9067C36.5588 51.7593 35.8162 52.8007 34.8757 54.1197C32.2876 57.7489 28.3766 63.2337 25.5136 72.3764C24.2271 76.4844 10.7779 90.8749 7.28004 94.3728C7.10941 94.5434 3.10732 98.5639 3.57786 99.6993C3.61525 99.7899 3.73927 100 4.08026 100C4.91654 100 7.12257 98.5673 10.6373 95.7359C15.2373 92.0303 18.3784 88.9298 20.6721 86.6643C22.9042 84.4593 24.3016 83.0843 25.2608 82.9355C25.1732 83.4053 24.8962 84.612 24.0559 87.6557C24.0357 87.7291 23.9933 87.9026 24.0894 88.029L24.1828 88.1807H24.3132H24.314C24.5175 88.1807 24.6226 88.018 25.5068 86.9205C28.2042 83.5727 36.4124 73.3438 47.8151 71.1041C54.497 69.7915 62.7939 63.5947 65.7225 54.2905C70.1519 40.2194 73.8594 31.3676 93.4166 26.8847C96.5045 26.1767 96.485 26.0024 96.455 25.7385Z" fill="#4834D4"/>
    </g>
    <defs>
        <clipPath id="clip0_4_63">
            <rect width="100" height="100" fill="white"/>
        </clipPath>
    </defs>
</svg>